<?xml version="1.0" encoding="UTF-8" standalone="no"?>
<svg
   xmlns:dc="http://purl.org/dc/elements/1.1/"
   xmlns:cc="http://creativecommons.org/ns#"
   xmlns:rdf="http://www.w3.org/1999/02/22-rdf-syntax-ns#"
   xmlns:svg="http://www.w3.org/2000/svg"
   xmlns="http://www.w3.org/2000/svg"
   id="svg24"
   version="1.1"
   style="overflow:visible"
   viewBox="-240 -217 480 438"
   height="1752px"
   width="1920px">
  <metadata
     id="metadata30">
    <rdf:RDF>
      <cc:Work
         rdf:about="">
        <dc:format>image/svg+xml</dc:format>
        <dc:type
           rdf:resource="http://purl.org/dc/dcmitype/StillImage" />
      </cc:Work>
    </rdf:RDF>
  </metadata>
  <defs
     id="defs28" />
  <rect
     id="rect2"
     fill-opacity="0"
     fill="rgb(0,0,0)"
     height="438"
     width="480"
     y="-217"
     x="-240" />
  <svg
     id="svg22"
     version="1.1"
     y="-250"
     x="-250"
     viewBox="-250 -250 500 500"
     height="500"
     width="500"
     style="overflow:visible">
    <g
       style="fill:#ffffff;stroke-linejoin:round"
       id="g20">
      <path
         style="fill:#fce2c4;fill-opacity:1;stroke:#444444;stroke-width:6;stroke-linecap:butt;stroke-linejoin:round;stroke-opacity:1"
         id="path4"
         d="m -103.083,-35.211001 c -2.92144,78.4617 23.4972,115.205 52.6936,147.992001 l -0.17085,76.8027 c 35.3154,10.1913 90.1252,10.6163 114.325,-3.36789 0,0 -3.77624,-53.3302 -6.18867,-86.846701 26.7604,-43.8544 65.6407,-88.5501 58.643,-137.915 3.74347,-16.5444 7.96071,-32.4944 6.27965,-49.7423 -2.11684,-21.718999 -57.6024,-103.584999 -68.5056,-107.221999 -10.9033,-3.63689 -40.5015,0.16872 -44.2124,5.44459 -3.71048,5.27592 -3.95393,16.8809 -3.95393,16.8809 0,0 -15.5541,-13.0366 -22.9355,-13.5505 -7.54874,-0.52549 -31.3681,10.2472 -35.4989,18.3722 -3.5289,6.94142 -0.41105,20.3029 -0.41105,20.3029 0,0 -9.58034,-6.64386 -18.129,-2.36888 -8.54925,4.27484 -24.6123,17.9703 -26.6339,25.4849 -2.04621,7.6053 -0.78018,12.6369 0.88494,17.8816 0,0 -21.0307,6.39175 -25.2616,20.155999 -4.10882,13.3691 12.5798,45.2362 19.0745,51.6892 z" />
      <path
         style="fill:none;stroke:#444444;stroke-width:6;stroke-linecap:round;stroke-linejoin:round;stroke-opacity:1"
         id="path6"
         d="m 116.22,-38.537001 c -1.60323,-7.97397 -4.79872,-18.296 -15.8446,-31.1937 C 89.262,-82.706901 25.6375,-145.7282 9.1991,-143.9458 c -15.992,1.73494 -36.4527,15.4049 -46.252,16.2323 -13.016,1.09994 -43.3573,0.0748 -43.9524,5.57764 -2.96649,27.414198 24.604,40.112298 81.5619,40.734598 9.96867,16.9267 13.7777,29.9075 21.7134,43.8128 -29.0323,29.9519 -33.7276,60.0396 -35.8799,87.8017" />
      <path
         style="fill:none;stroke:#444444;stroke-width:6;stroke-linecap:butt;stroke-linejoin:round;stroke-opacity:1"
         id="path8"
         d="m 5.838999,-173.1827 3.37068,29.2298" />
      <path
         style="fill:none;stroke:#444444;stroke-width:6;stroke-linecap:round;stroke-linejoin:round;stroke-opacity:1"
         id="path10"
         d="m 71.673,-153.8763 c -0.80441,16.8103 -4.33976,32.1431 -9.04839,46.8398" />
      <path
         style="fill:none;stroke:#444444;stroke-width:6;stroke-linecap:butt;stroke-linejoin:round;stroke-opacity:1"
         id="path12"
         d="m -53.015,-148.056 4.53456,20.8753" />
      <path
         style="fill:none;stroke:#444444;stroke-width:6;stroke-linecap:butt;stroke-linejoin:round;stroke-opacity:1"
         id="path14"
         d="m -38.625,-84.51 c 21.9762,59.6155 39.1528,50.3545 56.9732,39.4914" />
      <path
         style="fill:none;stroke:#444444;stroke-width:6;stroke-linecap:butt;stroke-linejoin:round;stroke-opacity:1"
         id="path16"
         d="m -96.896,-107.059 c 34.299,83.2142 65.2765,96.1714 92.2886,69.8314" />
      <path
         style="fill:none;stroke:#444444;stroke-width:6;stroke-linecap:butt;stroke-linejoin:round;stroke-opacity:1"
         id="path18"
         d="m -103.083,-35.211001 c 17.9552,21.2398 40.197,33.8173 55.3409,4.38558" />
    </g>
  </svg>
</svg>
